<svg width="377" height="96" viewBox="0 0 377 96" fill="none" xmlns="http://www.w3.org/2000/svg">
<path d="M57.792 52.352C58.304 57.024 51.968 58.304 51.072 53.888C50.048 48.768 47.424 43.84 43.968 41.472C40.896 39.36 44.352 34.624 48.192 37.504C52.736 40.896 57.152 46.912 57.792 52.352ZM29.824 62.912C25.728 69.568 20.032 68.992 16.448 65.152C11.84 60.16 9.728 52.736 9.216 44.672C8.96 41.024 8.832 39.872 8.896 37.568C9.024 33.536 15.232 32.704 15.424 37.504C15.552 40 15.296 40.128 15.424 43.072C15.68 49.792 16.896 56.128 20.48 59.584C22.144 61.184 22.976 61.376 24.384 59.456C25.152 58.368 26.048 56.704 26.496 55.68C28.224 51.968 33.536 54.656 32.32 57.984C31.68 59.776 30.528 61.76 29.824 62.912ZM95.5345 46.784C93.8705 41.728 90.7985 35.456 87.8545 31.872C84.5265 27.776 90.7985 24.32 93.3585 27.968C96.1105 31.872 98.9905 37.568 100.847 42.88C104.303 40.448 107.951 38.144 112.111 35.84C116.463 33.408 119.791 39.552 114.863 42.048C108.335 45.376 101.743 49.088 96.6865 53.376C90.3505 58.752 90.1585 63.552 95.1505 65.984C99.6305 68.224 108.783 66.56 112.623 65.152C117.999 63.104 119.919 70.464 114.223 72.064C109.167 73.472 98.4785 74.752 92.1425 71.552C82.9265 66.88 83.3105 56.512 93.6785 48.256C94.3185 47.744 94.8945 47.232 95.5345 46.784ZM175.727 30.016C171.183 29.184 166.575 27.264 163.887 25.728C160.239 23.68 162.927 18.688 167.407 20.736C170.159 21.952 173.807 22.976 177.327 23.552C182.575 24.448 180.463 30.912 175.727 30.016ZM169.903 76.288C165.679 79.424 161.455 74.176 165.231 71.488C176.687 63.424 180.207 52.096 177.583 44.672C175.791 39.68 170.991 39.424 166.575 42.048C165.295 42.816 161.775 44.608 160.367 44.992C155.311 46.272 153.711 40 158.383 38.336C160.047 37.76 162.095 37.056 163.887 36.288C170.415 33.408 179.823 33.664 183.215 41.024C188.143 51.712 182.703 66.88 169.903 76.288ZM274.094 75.328C268.91 79.168 264.238 73.856 269.614 70.336C279.534 63.872 285.166 50.048 280.75 36.672C278.638 30.272 272.558 32.64 270.702 36.608C268.846 40.512 268.718 43.136 269.038 48.704C269.358 54.912 262.446 54.848 262.062 50.24C261.678 45.184 262.766 39.04 263.534 35.456C264.238 32.192 265.454 27.968 265.966 24.064C266.478 20.032 272.686 20.8 272.366 24.64C272.174 26.816 271.406 29.056 270.702 30.592C269.87 32.32 270.51 31.488 271.15 30.656C275.822 24.64 284.142 27.264 286.766 34.496C291.438 47.424 289.134 64.256 274.094 75.328ZM342.831 48.256H343.151C347.951 48.448 352.687 49.536 357.039 51.072C357.423 48.448 357.167 46.08 356.143 44.352C354.351 41.344 360.111 38.912 362.223 42.88C363.631 45.44 363.823 49.28 362.863 53.504C366.191 55.104 369.199 57.024 371.695 58.944C375.727 62.08 371.375 67.968 367.727 64.64C365.615 62.72 363.311 60.992 360.751 59.456C358.383 64.256 354.351 69.056 348.591 72.448C344.111 75.072 340.911 70.08 345.071 67.52C349.871 64.576 353.199 60.608 355.183 56.704C350.447 54.72 345.391 53.568 340.271 53.504C337.903 58.432 335.727 62.4 332.079 65.216C328.239 68.224 322.607 68.608 319.855 65.216C316.591 61.12 318.959 54.464 326.319 51.2C329.711 49.728 333.295 48.832 336.815 48.448C339.055 43.648 341.999 37.824 343.791 33.792C344.175 32.896 344.367 32.384 343.407 32.64C340.911 33.28 338.479 34.112 335.855 34.176C331.631 34.304 331.823 28.352 335.663 28.096C338.223 27.968 342.127 27.008 344.879 26.496C350.703 25.344 353.263 29.12 350.383 33.792C347.695 38.272 345.135 43.456 342.831 48.256ZM334.063 54.016C332.399 54.272 330.479 54.784 328.111 55.936C326.447 56.768 323.439 59.456 324.527 61.056C325.295 62.144 327.599 61.76 328.751 60.864C330.863 59.264 332.591 56.64 334.063 54.016Z" fill="black"/>
</svg>
