<svg width="107" height="59" viewBox="0 0 107 59" fill="none" xmlns="http://www.w3.org/2000/svg">
<path d="M26 7.59595C37.0921 7.59595 46.7373 17.4019 46.7373 30.3333C46.7373 43.2646 37.0921 53.0706 26 53.0706C14.9079 53.0706 5.2627 43.2646 5.2627 30.3333C5.2627 17.4019 14.9079 7.59595 26 7.59595Z" stroke="black" stroke-width="10.5263"/>
<rect x="92.3335" y="44" width="14.6667" height="14.6667" fill="black"/>
<path d="M107 21.8333L92.5 21.3333L63 57.4999H77.6667L107 21.8333Z" fill="black"/>
<path d="M99.6668 21.919C99.6668 19.844 99.2216 17.7928 98.361 15.9026C97.5003 14.0123 96.244 12.3264 94.6759 10.9575C93.1079 9.58863 91.2642 8.5682 89.2679 7.96441C87.2717 7.36061 85.1689 7.18735 83.0999 7.45619C81.031 7.72503 79.0436 8.42978 77.2703 9.52338C75.4971 10.617 73.9789 12.0742 72.8172 13.7979C71.6555 15.5215 70.8769 17.4718 70.5335 19.5185C70.1901 21.5652 70.2898 23.6612 70.8259 25.6666" stroke="black" stroke-width="14.6667"/>
</svg>
