<svg width="1149" height="116" viewBox="0 0 1149 116" fill="none" xmlns="http://www.w3.org/2000/svg">
<line x1="8.69748" y1="86.5084" x2="8.69748" y2="115.5" stroke="black" stroke-width="17.395"/>
<circle cx="173.819" cy="58" r="50" stroke="black" stroke-width="15"/>
<circle cx="706.819" cy="58" r="50" stroke="black" stroke-width="15"/>
<path d="M996.319 30.2857C991.945 23.2101 985.842 17.3964 978.601 13.4059C971.36 9.41546 963.225 7.38312 954.982 7.50519C946.738 7.62726 938.666 9.89962 931.543 14.1028C924.42 18.306 918.488 24.2979 914.319 31.5" stroke="black" stroke-width="15"/>
<path d="M915.319 85.7143C919.694 92.7899 925.797 98.6036 933.038 102.594C940.279 106.585 948.414 108.617 956.657 108.495C964.9 108.373 972.973 106.1 980.096 101.897C987.219 97.694 993.151 91.7021 997.319 84.5" stroke="black" stroke-width="15"/>
<circle cx="1090.82" cy="58" r="50" stroke="black" stroke-width="15"/>
<line x1="955.819" y1="12.5" x2="955.819" y2="106.5" stroke="black" stroke-width="15"/>
<line x1="439.819" y1="11.5" x2="439.819" y2="115.5" stroke="black" stroke-width="15"/>
<path d="M486.16 58.3236C486.689 51.9818 485.896 45.5992 483.832 39.5794C481.768 33.5596 478.477 28.0336 474.168 23.3508C469.859 18.668 464.624 14.9303 458.797 12.3741C452.969 9.81787 446.674 8.49869 440.31 8.5C433.946 8.50131 427.652 9.82306 421.825 12.3817C415.998 14.9403 410.765 18.6801 406.458 23.3647C402.151 28.0492 398.862 33.5766 396.8 39.5972C394.739 45.6179 393.949 52.0008 394.48 58.3424" stroke="black" stroke-width="15"/>
<path d="M50.7352 66.7866C54.9833 67.4457 59.332 67.2765 63.5063 66.2897C67.6806 65.3029 71.5895 63.52 74.986 61.0537C78.3825 58.5874 81.1925 55.4914 83.2384 51.9616C85.2842 48.4317 86.5214 44.5448 86.8716 40.5467C87.2219 36.5486 86.6775 32.5263 85.273 28.7343C83.8686 24.9422 81.6345 21.4629 78.7122 18.5164C75.7899 15.5698 72.2429 13.2203 68.2956 11.6162C64.3482 10.0122 60.0865 9.18859 55.7799 9.19755" stroke="black" stroke-width="17.395"/>
<path d="M301.804 55.9248H325.273L362.21 115.5H335.811L301.804 55.9248Z" fill="black"/>
<rect x="258.319" y="93.2003" width="16.7248" height="22.2997" fill="black"/>
<rect x="283.964" y="0.656555" width="27.8746" height="16.7248" fill="black"/>
<path d="M320.148 67.3645C324.186 66.2632 327.945 64.3566 331.189 61.7637C334.433 59.1708 337.093 55.9472 339.004 52.2942C340.915 48.6412 342.034 44.6371 342.294 40.5319C342.553 36.4267 341.945 32.3085 340.51 28.4342C339.074 24.5599 336.841 21.0128 333.95 18.0142C331.059 15.0156 327.571 12.6299 323.705 11.0059C319.839 9.38196 315.678 8.55464 311.481 8.57558" stroke="black" stroke-width="15.9016"/>
<line x1="539.819" y1="0.5" x2="539.819" y2="115.5" stroke="black" stroke-width="15"/>
<line x1="599.319" y1="0.5" x2="599.319" y2="20.5" stroke="black" stroke-width="20"/>
<line x1="589.319" y1="39.5" x2="589.319" y2="59.5" stroke="black" stroke-width="20"/>
<line x1="810.819" y1="0.5" x2="810.819" y2="115.5" stroke="black" stroke-width="15"/>
<line x1="862.319" y1="95.5" x2="862.319" y2="115.5" stroke="black" stroke-width="20"/>
</svg>
