<svg width="221" height="380" viewBox="0 0 221 380" fill="none" xmlns="http://www.w3.org/2000/svg">
<path d="M79 12.2627C90.0921 12.2627 99.7373 22.0687 99.7373 35C99.7373 47.9313 90.0921 57.7373 79 57.7373C67.9079 57.7373 58.2627 47.9313 58.2627 35C58.2627 22.0687 67.9079 12.2627 79 12.2627Z" stroke="black" stroke-width="10.5263"/>
<rect x="29.3335" y="48.6667" width="14.6667" height="14.6667" fill="black"/>
<path d="M44 26.5L29.5 26L0 62.1667H14.6667L44 26.5Z" fill="black"/>
<path d="M36.6668 26.5857C36.6668 24.5107 36.2216 22.4596 35.361 20.5693C34.5003 18.6791 33.244 16.9932 31.6759 15.6243C30.1079 14.2554 28.2642 13.2349 26.2679 12.6312C24.2717 12.0274 22.1689 11.8541 20.0999 12.1229C18.031 12.3918 16.0436 13.0965 14.2703 14.1901C12.4971 15.2837 10.9789 16.741 9.8172 18.4646C8.65545 20.1882 7.87688 22.1385 7.53349 24.1852C7.19009 26.232 7.28978 28.328 7.82588 30.3333" stroke="black" stroke-width="14.6667"/>
<rect x="143.333" y="48.6667" width="14.6667" height="14.6667" fill="black"/>
<rect x="194" y="49" width="14.6667" height="14.6667" fill="black"/>
<path d="M158 26.5L143.5 26L114 62.1667H128.667L158 26.5Z" fill="black"/>
<path d="M150.667 26.5857C150.667 24.5107 150.222 22.4596 149.361 20.5693C148.5 18.6791 147.244 16.9932 145.676 15.6243C144.108 14.2554 142.264 13.2349 140.268 12.6312C138.272 12.0274 136.169 11.8541 134.1 12.1229C132.031 12.3918 130.044 13.0965 128.27 14.1901C126.497 15.2837 124.979 16.741 123.817 18.4646C122.655 20.1882 121.877 22.1385 121.533 24.1852C121.19 26.232 121.29 28.328 121.826 30.3333" stroke="black" stroke-width="14.6667"/>
<line x1="206.748" y1="5.10168" x2="174.081" y2="31.235" stroke="black" stroke-width="13.0667"/>
<line x1="209.2" y1="32.6667" x2="170" y2="32.6667" stroke="black" stroke-width="13.0667"/>
<line x1="198.5" y1="81" x2="198.5" y2="301" stroke="black" stroke-width="5"/>
<path d="M86 327.263C97.0921 327.263 106.737 337.069 106.737 350C106.737 362.931 97.0921 372.737 86 372.737C74.9079 372.737 65.2627 362.931 65.2627 350C65.2627 337.069 74.9079 327.263 86 327.263Z" stroke="black" stroke-width="10.5263"/>
<rect x="36.3335" y="363.667" width="14.6667" height="14.6667" fill="black"/>
<rect x="151" y="364" width="14.6667" height="14.6667" fill="black"/>
<path d="M51 341.5L36.5 341L7 377.167H21.6667L51 341.5Z" fill="black"/>
<path d="M43.6668 341.586C43.6668 339.511 43.2216 337.46 42.361 335.569C41.5003 333.679 40.244 331.993 38.6759 330.624C37.1079 329.255 35.2642 328.235 33.2679 327.631C31.2717 327.027 29.1689 326.854 27.0999 327.123C25.031 327.392 23.0436 328.097 21.2703 329.19C19.4971 330.284 17.9789 331.741 16.8172 333.465C15.6555 335.188 14.8769 337.139 14.5335 339.185C14.1901 341.232 14.2898 343.328 14.8259 345.333" stroke="black" stroke-width="14.6667"/>
<path d="M165 341.5L150.5 341L121 377.167H135.667L165 341.5Z" fill="black"/>
<path d="M157.667 341.586C157.667 339.511 157.222 337.46 156.361 335.569C155.5 333.679 154.244 331.993 152.676 330.624C151.108 329.255 149.264 328.235 147.268 327.631C145.272 327.027 143.169 326.854 141.1 327.123C139.031 327.392 137.044 328.097 135.27 329.19C133.497 330.284 131.979 331.741 130.817 333.465C129.655 335.188 128.877 337.139 128.533 339.185C128.19 341.232 128.29 343.328 128.826 345.333" stroke="black" stroke-width="14.6667"/>
<path d="M186.254 363.627C186.254 365.063 186.518 366.484 187.031 367.811C187.544 369.137 188.295 370.342 189.243 371.357C190.19 372.373 191.315 373.178 192.553 373.727C193.791 374.277 195.118 374.559 196.458 374.559" stroke="black" stroke-width="10.5763"/>
<path d="M215 335.932C215 334.497 214.736 333.075 214.223 331.749C213.711 330.422 212.959 329.217 212.011 328.202C211.064 327.187 209.939 326.382 208.701 325.832C207.463 325.283 206.137 325 204.797 325" stroke="black" stroke-width="10.5763"/>
<path d="M215 358.847C215 357.412 214.736 355.99 214.223 354.664C213.711 353.338 212.959 352.132 212.011 351.117C211.064 350.102 209.939 349.297 208.701 348.747C207.463 348.198 206.137 347.915 204.797 347.915" stroke="black" stroke-width="8.74577"/>
<path d="M205.678 325C204.263 325 194.245 325.228 192.938 325.671C191.631 326.114 190.443 326.763 189.443 327.581C188.443 328.4 187.649 329.371 187.108 330.441C186.567 331.51 186.288 332.656 186.288 333.814" stroke="black" stroke-width="10.5763"/>
<line x1="195" y1="374.525" x2="208.119" y2="374.525" stroke="black" stroke-width="10.5763"/>
<line x1="186.288" y1="333.746" x2="186.288" y2="364.356" stroke="black" stroke-width="10.5763"/>
</svg>
