<svg width="109" height="60" viewBox="0 0 109 60" fill="none" xmlns="http://www.w3.org/2000/svg">
<path d="M26 5.2627C37.0921 5.2627 46.7373 15.0687 46.7373 28C46.7373 40.9313 37.0921 50.7373 26 50.7373C14.9079 50.7373 5.2627 40.9313 5.2627 28C5.2627 15.0687 14.9079 5.2627 26 5.2627Z" stroke="black" stroke-width="10.5263"/>
<rect x="79.6665" y="17.6667" width="14.6667" height="14.6667" transform="rotate(-180 79.6665 17.6667)" fill="black"/>
<path d="M73 31.8333L85 31.8333L109 3.00009L94.3335 3.00008L73 31.8333Z" fill="black"/>
<path d="M63.6952 37.5601C63.8568 40.0627 64.6332 42.4868 65.9555 44.6177C67.2778 46.7485 69.1052 48.5204 71.2759 49.7764C73.4465 51.0323 75.8934 51.7335 78.3998 51.8179C80.9062 51.9024 83.3947 51.3673 85.6449 50.2603C87.8952 49.1532 89.8376 47.5083 91.3003 45.4712C92.7629 43.4341 93.7006 41.0677 94.0303 38.5816C94.36 36.0956 94.0714 33.5666 93.1903 31.2187C92.3091 28.8708 90.8625 26.7765 88.9785 25.1212" stroke="black" stroke-width="15"/>
</svg>
