<svg width="236" height="134" viewBox="0 0 236 134" fill="none" xmlns="http://www.w3.org/2000/svg">
<path d="M57.2344 16.5859C81.6518 16.5859 102.884 38.1715 102.884 66.6377C102.884 95.1037 81.6517 116.688 57.2344 116.688C32.8171 116.688 11.5861 95.1036 11.5859 66.6377C11.5859 38.1717 32.817 16.5861 57.2344 16.5859Z" stroke="#4F4F4F" stroke-width="23.1719"/>
<path d="M209.574 25.5889L217.662 11.7695L228.944 11.7695L220.899 25.5889L209.574 25.5889Z" fill="#4F4F4F" stroke="#4F4F4F" stroke-width="7.5396"/>
<path d="M176.994 11.2489L161.33 11.2496L142.553 66.0007L157.764 66.0002L176.994 11.2489Z" fill="#4F4F4F" stroke="#4F4F4F" stroke-width="7.5396"/>
<path d="M135.358 88.7082C135.691 93.8542 137.287 98.8387 140.006 103.22C142.725 107.602 146.483 111.245 150.946 113.828C155.409 116.411 160.441 117.852 165.595 118.026C170.748 118.2 175.865 117.099 180.493 114.823C185.12 112.547 189.114 109.164 192.121 104.975C195.129 100.787 197.057 95.9207 197.735 90.8088C198.413 85.6968 197.82 80.4966 196.008 75.6687C194.196 70.8408 191.221 66.5343 187.347 63.1306" stroke="#4F4F4F" stroke-width="30.8438"/>
</svg>
